<svg width="120" height="120" viewBox="0 0 120 120" xmlns="http://www.w3.org/2000/svg" xmlns:xlink="http://www.w3.org/1999/xlink"><defs><path id="a" d="M0 .637h119.365v119.655H0z"/></defs><g fill="none" fill-rule="evenodd"><g transform="translate(0 .07)"><mask id="b" fill="#fff"><use xlink:href="#a"/></mask><path d="M119.365 60.464c0 33.043-26.72 59.828-59.683 59.828C26.721 120.292 0 93.507 0 60.464 0 27.422 26.72.637 59.682.637s59.683 26.785 59.683 59.827" fill="#FFF" mask="url(#b)"/></g><path d="M72.456 79.158H28.411v-15.97c0-24.385 19.72-43.987 44.045-43.987v59.957z" fill="#FFF"/><path d="M81.202 54.594L99.057 44.26a2.408 2.408 0 0 0 .994-3.042C95.176 29.894 84.89 21.462 72.456 19.2v55.385a33.728 33.728 0 0 0 14.686-5.037 2.421 2.421 0 0 0 .798-3.257l-6.738-11.698z" fill="#FBE400"/><path d="M52.847 56.424c-.72 0-1.344-.54-1.433-1.275a7.604 7.604 0 0 1-.053-.905c0-4.113 3.337-7.458 7.44-7.458 2.222 0 4.31.984 5.73 2.7a1.45 1.45 0 0 1-.19 2.04 1.444 1.444 0 0 1-2.035-.191 4.536 4.536 0 0 0-3.505-1.653c-2.51 0-4.551 2.047-4.551 4.562 0 .186.011.374.033.557a1.447 1.447 0 0 1-1.436 1.623M50.906 81.221h-5.718v21.068a2.863 2.863 0 0 0 2.86 2.866 2.863 2.863 0 0 0 2.858-2.866V81.22zM67.332 81.221h-5.719v21.068a2.863 2.863 0 0 0 2.86 2.866 2.863 2.863 0 0 0 2.859-2.866V81.22z" fill="#29C07B"/><path d="M69.084 74.758c-15.892 0-29.236-10.925-32.972-25.69a64.31 64.31 0 0 0-7.7 23.118v16.906a2.468 2.468 0 0 1-2.465 2.471c-1.92 0-3.596 1.452-3.72 3.373a3.609 3.609 0 0 0 3.597 3.853h2.588v.04H55.69c9.26 0 16.766-7.525 16.766-16.808v-7.43c-1.11.11-2.234.167-3.372.167" fill="#29C07B"/><path d="M44.777 30.14c-6.051 0-10.957-4.917-10.957-10.984v-.084c.025-3.42-4.458-4.786-6.188-1.84a10.975 10.975 0 0 0-1.475 6.394c.405 5.516 4.971 9.925 10.484 10.143 3.416.135 6.5-1.299 8.597-3.64-.152.006-.306.012-.46.012" fill="#EE4B4A"/><path d="M72.456 19.201a36.927 36.927 0 0 0-6.706-.604c-12.272 0-23.161 5.934-29.97 15.095a34.327 34.327 0 0 0-.711 6.968c0 2.901.362 5.718 1.043 8.408C43.998 35.03 56.91 24.234 72.456 19.2" fill="#F78E20"/><path d="M36.112 49.068a34.238 34.238 0 0 1-1.043-8.408c0-2.388.246-4.718.712-6.968a37.331 37.331 0 0 0-7.37 23.074v15.42a64.328 64.328 0 0 1 7.7-23.118" fill="#AC4FA2"/></g></svg>